<?xml version="1.0" encoding="UTF-8"?>
<svg width="18.325px" height="15.833px" viewBox="0 0 18.325 15.833" version="1.1" xmlns="http://www.w3.org/2000/svg" xmlns:xlink="http://www.w3.org/1999/xlink">
    <title>Group 5763</title>
    <defs>
        <path d="M1.892,0 L16.667,14.775 L15.608,15.833 L13.167,13.4 L12.817,13.05 C11.692,13.5 10.458,13.75 9.167,13.75 C5,13.75 1.442,11.158 0,7.5 C0.65,5.85 1.733,4.417 3.117,3.342 L0.833,1.058 L1.892,0 Z M5.442,5.667 L5.34405273,5.87898047 C5.12785938,6.37989063 5,6.92425 5,7.5 C5,9.8 6.867,11.667 9.167,11.667 C9.825,11.667 10.442,11.5 11,11.225 L9.708,9.933 C9.533,9.975 9.35,10 9.167,10 C7.783,10 6.667,8.883 6.667,7.5 C6.667,7.317 6.692,7.133 6.733,6.958 L5.442,5.667 Z M9.158,1.25 C13.325,1.25 16.883,3.842 18.325,7.5 C17.717,9.05 16.725,10.408 15.467,11.458 L13.033,9.025 C13.225,8.55 13.333,8.042 13.333,7.5 C13.333,5.2 11.467,3.333 9.167,3.333 C8.625,3.333 8.117,3.442 7.642,3.633 L5.842,1.833 C6.875,1.458 7.992,1.25 9.158,1.25 Z M9.175,5.008 C10.558,5.008 11.675,6.125 11.675,7.508 L11.658,7.642 L9.033,5.017 L9.175,5.008 Z" id="path-1"></path>
    </defs>
    <g id="Page-1" stroke="none" stroke-width="1" fill="none" fill-rule="evenodd">
        <g id="innen" transform="translate(-1325, -540)">
            <g id="Group-5763" transform="translate(1325, 540)">
                <mask id="mask-2" fill="white">
                    <use xlink:href="#path-1"></use>
                </mask>
                <g id="Clip-5762"></g>
                <polygon id="Fill-5761" fill="#9CA3AF" mask="url(#mask-2)" points="-1 -1 19.325 -1 19.325 16.833 -1 16.833"></polygon>
            </g>
        </g>
    </g>
</svg>