<?xml version="1.0" encoding="UTF-8"?>
<svg width="30px" height="30px" viewBox="0 0 30 30" version="1.1" xmlns="http://www.w3.org/2000/svg" xmlns:xlink="http://www.w3.org/1999/xlink">
    <title>Group 5539</title>
    <defs>
        <path d="M15,0 C23.284,0 30,6.716 30,15 C30,23.284 23.284,30 15,30 C6.716,30 0,23.284 0,15 C0,6.716 6.716,0 15,0 Z" id="path-1"></path>
        <path d="M4.236,0 C5.812,0 7.193,0.616 7.962,1.541 L8.563,2.22 L4.301,6.125 L0,2.061 L0.561,1.48 C1.339,0.59 2.694,0 4.236,0 Z" id="path-3"></path>
        <path d="M6.69625,0 C6.86025,0 6.99325,0.133 6.99325,0.297 L6.99325,2.82 L9.71925,2.82 C10.10325,2.82 10.10325,3.415 9.71925,3.415 L0.28725,3.415 C-0.09575,3.415 -0.09575,2.82 0.28725,2.82 L3.34625,2.82 L3.34625,0.297 C3.34625,0.133 3.47925,0 3.64325,0 C3.80725,0 3.94025,0.133 3.94025,0.297 L3.94025,2.82 L6.39825,2.82 L6.39825,0.297 C6.39825,0.133 6.53125,0 6.69625,0 Z" id="path-5"></path>
        <path d="M12.095,0 L12.095,15.908 L5.24,15.908 C2.346,15.908 0,13.564 0,10.673 L0,0 L6.087,4.119 L12.095,0 Z" id="path-7"></path>
        <path d="M12.975,-4.54747351e-13 C12.975,-4.54747351e-13 12.428,3.423 9.06,3.423 L9.06,6.819 L3.97,6.739 L3.916,3.423 C0.724315789,3.423 0.0653961219,0.350833795 0.00487738737,0.0274478787 L0,-4.54747351e-13 C1.209,1.496 2.748,0.87 4.693,1.87 C6.283875,2.6881875 6.45871484,4.52235547 6.46835059,5.18140405 L6.46821094,5.31163477 C6.46692188,5.38321875 6.464,5.423 6.464,5.423 L6.512,5.423 C6.512,5.423 6.50907813,5.38321875 6.50778711,5.31163477 L6.50764282,5.18140405 C6.51725,4.52235547 6.6919375,2.6881875 8.282,1.87 C10.227,0.87 11.766,1.496 12.975,-4.54747351e-13 Z" id="path-9"></path>
        <path d="M2.519,0 C3.91,0 5.038,1.127 5.038,2.517 C5.038,3.908 3.91,5.035 2.519,5.035 C1.128,5.035 0,3.908 0,2.517 C0,1.127 1.128,0 2.519,0 Z" id="path-11"></path>
        <path d="M0.5,0.2025 C0.883,0.2025 0.883,0.7975 0.5,0.7975 C0.117,0.7975 0.117,0.2025 0.5,0.2025 Z" id="path-13"></path>
        <path d="M2.519,0 C3.911,0 5.039,1.127 5.039,2.517 C5.039,3.908 3.911,5.035 2.519,5.035 C1.128,5.035 -2.27373675e-13,3.908 -2.27373675e-13,2.517 C-2.27373675e-13,1.127 1.128,0 2.519,0 Z" id="path-15"></path>
        <path d="M0.499625,0.2025 C0.883625,0.2025 0.882625,0.7975 0.499625,0.7975 C0.116625,0.7975 0.117625,0.2025 0.499625,0.2025 Z" id="path-17"></path>
        <path d="M1.224,0 C1.9,0 2.447,0.547 2.447,1.222 C2.447,1.898 1.224,4.052 1.224,4.052 C1.224,4.052 0,1.898 0,1.222 C0,0.547 0.548,0 1.224,0 Z" id="path-19"></path>
        <path d="M3.516,0 C4.989,0 6.184,1.194 6.184,2.667 L6.184,7.172 C6.184,7.281 6.095,7.37 5.986,7.37 L3.777,7.37 C1.691,7.37 2.27373675e-13,5.679 2.27373675e-13,3.592 L2.27373675e-13,3.516 C2.27373675e-13,1.574 1.574,0 3.516,0 Z" id="path-21"></path>
    </defs>
    <g id="Page-1" stroke="none" stroke-width="1" fill="none" fill-rule="evenodd">
        <g id="innen" transform="translate(-1092, -686)">
            <g id="Group-5721" transform="translate(1058.749, 227)">
                <g id="Group-5539" transform="translate(33.251, 459)">
                    <g id="Group-5508">
                        <mask id="mask-2" fill="white">
                            <use xlink:href="#path-1"></use>
                        </mask>
                        <g id="Clip-5507"></g>
                        <polygon id="Fill-5506" fill="#FFFFFF" mask="url(#mask-2)" points="-1 -1 32 -1 32 31 -1 31"></polygon>
                    </g>
                    <g id="Group-5511" transform="translate(10.226, 5)">
                        <mask id="mask-4" fill="white">
                            <use xlink:href="#path-3"></use>
                        </mask>
                        <g id="Clip-5510"></g>
                        <polygon id="Fill-5509" fill="#405B73" mask="url(#mask-4)" points="-1 -1 9.563 -1 9.563 7.125 -1 7.125"></polygon>
                    </g>
                    <g id="Group-5514" transform="translate(9.9307, 21.585)">
                        <mask id="mask-6" fill="white">
                            <use xlink:href="#path-5"></use>
                        </mask>
                        <g id="Clip-5513"></g>
                        <polygon id="Fill-5512" fill="#F4CC54" mask="url(#mask-6)" points="-1.09575 -1 11.10325 -1 11.10325 4.415 -1.09575 4.415"></polygon>
                    </g>
                    <g id="Group-5517" transform="translate(8.44, 6.728)">
                        <mask id="mask-8" fill="white">
                            <use xlink:href="#path-7"></use>
                        </mask>
                        <g id="Clip-5516"></g>
                        <polygon id="Fill-5515" fill="#405B73" mask="url(#mask-8)" points="-1 -1 13.095 -1 13.095 16.908 -1 16.908"></polygon>
                    </g>
                    <g id="Group-5520" transform="translate(8, 5.436)">
                        <mask id="mask-10" fill="white">
                            <use xlink:href="#path-9"></use>
                        </mask>
                        <g id="Clip-5519"></g>
                        <polygon id="Fill-5518" fill="#F4CC54" mask="url(#mask-10)" points="-1 -1 13.975 -1 13.975 7.819 -1 7.819"></polygon>
                    </g>
                    <g id="Group-5523" transform="translate(9.459, 8.859)">
                        <mask id="mask-12" fill="white">
                            <use xlink:href="#path-11"></use>
                        </mask>
                        <g id="Clip-5522"></g>
                        <polygon id="Fill-5521" fill="#E7E8E8" mask="url(#mask-12)" points="-1 -1 6.038 -1 6.038 6.035 -1 6.035"></polygon>
                    </g>
                    <g id="Group-5526" transform="translate(11.478, 10.8765)">
                        <mask id="mask-14" fill="white">
                            <use xlink:href="#path-13"></use>
                        </mask>
                        <g id="Clip-5525"></g>
                        <polygon id="Fill-5524" fill="#405B73" mask="url(#mask-14)" points="-0.883 -0.7975 1.883 -0.7975 1.883 1.7975 -0.883 1.7975"></polygon>
                    </g>
                    <g id="Group-5529" transform="translate(14.526, 8.859)">
                        <mask id="mask-16" fill="white">
                            <use xlink:href="#path-15"></use>
                        </mask>
                        <g id="Clip-5528"></g>
                        <polygon id="Fill-5527" fill="#E7E8E8" mask="url(#mask-16)" points="-1 -1 6.039 -1 6.039 6.035 -1 6.035"></polygon>
                    </g>
                    <g id="Group-5532" transform="translate(16.5454, 10.8765)">
                        <mask id="mask-18" fill="white">
                            <use xlink:href="#path-17"></use>
                        </mask>
                        <g id="Clip-5531"></g>
                        <polygon id="Fill-5530" fill="#405B73" mask="url(#mask-18)" points="-0.883375 -0.7975 1.883625 -0.7975 1.883625 1.7975 -0.883375 1.7975"></polygon>
                    </g>
                    <g id="Group-5535" transform="translate(13.288, 11.839)">
                        <mask id="mask-20" fill="white">
                            <use xlink:href="#path-19"></use>
                        </mask>
                        <g id="Clip-5534"></g>
                        <polygon id="Fill-5533" fill="#F4CC54" mask="url(#mask-20)" points="-1 -1 3.447 -1 3.447 5.052 -1 5.052"></polygon>
                    </g>
                    <g id="Group-5538" transform="translate(16.173, 15.266)">
                        <mask id="mask-22" fill="white">
                            <use xlink:href="#path-21"></use>
                        </mask>
                        <g id="Clip-5537"></g>
                        <polygon id="Fill-5536" fill="#F4CC54" mask="url(#mask-22)" points="-1 -1 7.184 -1 7.184 8.37 -1 8.37"></polygon>
                    </g>
                </g>
            </g>
        </g>
    </g>
</svg>