<?xml version="1.0" encoding="UTF-8"?>
<svg width="30px" height="30px" viewBox="0 0 30 30" version="1.1" xmlns="http://www.w3.org/2000/svg" xmlns:xlink="http://www.w3.org/1999/xlink">
    <title>Group 5623</title>
    <defs>
        <path d="M15,0 C23.284,0 30,6.716 30,15 C30,23.284 23.284,30 15,30 C6.716,30 0,23.284 0,15 C0,6.716 6.716,0 15,0 Z" id="path-1"></path>
        <path d="M2.48300569,0 C3.85500569,0 4.96700569,1.112 4.96700569,2.484 C4.96700569,3.855 3.85500569,4.968 2.48300569,4.968 C1.82500569,4.968 1.19200569,4.706 0.727005688,4.241 C0.261005688,3.775 -0.000994311983,3.143 2.83590036e-06,2.484 C2.83590036e-06,1.112 1.11200569,0 2.48300569,0 Z M2.48300569,1.064 C1.70000569,1.064 1.06400569,1.7 1.06400569,2.484 C1.06400569,3.268 1.70000569,3.903 2.48300569,3.903 C3.26700569,3.903 3.90300569,3.268 3.90300569,2.484 C3.90300569,1.7 3.26700569,1.064 2.48300569,1.064 Z" id="path-3"></path>
        <path d="M2.48400569,2.83590013e-06 C3.85500569,2.83590013e-06 4.96700569,1.11200569 4.96700569,2.48400569 C4.96700569,3.85500569 3.85500569,4.96800569 2.48400569,4.96800569 C1.11200569,4.96800569 2.83590036e-06,3.85500569 2.83590036e-06,2.48400569 C-0.000994311983,1.82500569 0.261005688,1.19300569 0.727005688,0.727005688 C1.19300569,0.261005688 1.82500569,-0.000994311983 2.48400569,2.83590013e-06 Z M2.48400569,1.06400569 C1.70000569,1.06400569 1.06400569,1.70000569 1.06400569,2.48400569 C1.06400569,3.26800569 1.70000569,3.90300569 2.48400569,3.90300569 C3.26700569,3.90300569 3.90300569,3.26800569 3.90300569,2.48400569 C3.90300569,1.70000569 3.26700569,1.06400569 2.48400569,1.06400569 Z" id="path-5"></path>
        <path d="M1.419,0 C2.203,0 2.839,0.636 2.839,1.42 C2.839,2.204 2.203,2.839 1.419,2.839 C0.636,2.839 -2.27373675e-13,2.204 -2.27373675e-13,1.42 C-2.27373675e-13,0.636 0.636,0 1.419,0 Z" id="path-7"></path>
        <path d="M1.42,0 C2.203,0 2.839,0.636 2.839,1.42 C2.839,2.204 2.203,2.839 1.42,2.839 C0.636,2.839 0,2.204 0,1.42 C0,0.636 0.636,0 1.42,0 Z" id="path-9"></path>
        <polygon id="path-11" points="2.484 0 2.839 1.419 1.42 2.129 0 1.419 0.355 0"></polygon>
        <polygon id="path-13" points="2.129 0 1.775 1.419 0 1.774 1.065 0"></polygon>
        <polygon id="path-15" points="1.065 0 2.129 1.774 0.355 1.419 -2.27373675e-13 0"></polygon>
        <polygon id="path-17" points="0 0 1.065 0 1.065 2.129 0 2.129"></polygon>
        <path d="M2.129,4.54747351e-13 L2.129,2.129 L1.065,2.129 C0.477,2.129 0,1.652 0,1.064 C0,0.477 0.477,4.54747351e-13 1.065,4.54747351e-13 L2.129,4.54747351e-13 Z" id="path-19"></path>
        <polygon id="path-21" points="0.657 4.54747351e-13 2.839 0.656 0.657 1.313 0 0.656"></polygon>
        <polygon id="path-23" points="0.71 4.54747351e-13 2.076 0.408 1.419 1.064 2.076 1.721 0.71 2.129 0 1.064"></polygon>
        <polygon id="path-25" points="14.548 4.54747351e-13 15.258 1.065 0 1.065 0 4.54747351e-13"></polygon>
        <polygon id="path-27" points="15.258 0 14.548 1.064 0 1.064 0 0"></polygon>
        <polygon id="path-29" points="6.032 0 12.064 2.129 10.645 2.629 6.032 4.258 1.419 2.629 0 2.129"></polygon>
        <path d="M9.226,0 L9.226,2.339 C9.221,2.471 9.17,2.596 9.08,2.694 C8.569,3.307 6.767,3.758 4.613,3.758 C2.381,3.758 0.522,3.272 0.092,2.623 C0.034,2.539 0.002,2.44 0,2.339 L0,0 L4.613,1.629 L9.226,0 Z" id="path-31"></path>
        <path d="M0.71,0 C0.71,0 2.129,2.129 2.129,3.548 C2.135,3.832 2.025,4.107 1.824,4.307 C1.623,4.508 1.349,4.619 1.065,4.613 C0.66,4.592 0.292,4.375 0.078,4.031 C0.026,3.635 2.27373675e-13,3.237 2.27373675e-13,2.838 C2.27373675e-13,0.709 0.71,0 0.71,0 Z" id="path-33"></path>
        <path d="M1.41923319,0 C1.41923319,0 2.12923319,0.709 2.12923319,2.838 C2.12923319,3.237 2.10323319,3.635 2.05123319,4.031 C1.83723319,4.375 1.46923319,4.592 1.06423319,4.613 C0.780233193,4.619 0.506233193,4.508 0.305233193,4.307 C0.104233193,4.107 -0.00576680712,3.832 0.000233192882,3.548 C0.000233192882,2.129 1.41923319,0 1.41923319,0 Z" id="path-35"></path>
        <path d="M2.22455334,0 C2.65455334,0.649 4.51355334,1.135 6.74555334,1.135 C8.89955334,1.135 10.7015533,0.684 11.2125533,0.071 L12.7775533,0.071 L12.4225533,1.845 C12.4225533,1.845 13.4875533,2.554 13.4875533,4.329 C13.5245533,5.102 13.2715533,5.861 12.7775533,6.458 C12.7775533,6.458 11.3585533,8.587 11.3585533,10.006 C11.3525533,10.29 11.4625533,10.565 11.6635533,10.765 C11.8645533,10.966 12.1385533,11.077 12.4225533,11.071 C12.8275533,11.05 13.1955533,10.833 13.4095533,10.489 C13.3375533,11.192 13.1225533,11.873 12.7775533,12.49 L0.713553342,12.49 C0.368553342,11.873 0.153553342,11.192 0.0815533421,10.489 C0.295553342,10.833 0.663553342,11.05 1.06855334,11.071 C1.35255334,11.077 1.62655334,10.966 1.82755334,10.765 C2.02855334,10.565 2.13855334,10.29 2.13255334,10.006 C2.13255334,8.587 0.713553342,6.458 0.713553342,6.458 C0.219553342,5.861 -0.0334466579,5.102 0.00355334208,4.329 C0.00355334208,2.554 1.06855334,1.845 1.06855334,1.845 L0.713553342,0.071 L2.13255334,0.071 L2.22455334,0 Z M7.45555334,5.393 L6.03555334,5.393 L6.74555334,7.167 L7.45555334,5.393 Z M3.55155334,1.845 C2.18055334,1.845 1.06855334,2.957 1.06855334,4.329 C1.06855334,5.7 2.18055334,6.813 3.55155334,6.813 C4.21055334,6.813 4.84255334,6.551 5.30855334,6.086 C5.77455334,5.62 6.03655334,4.988 6.03555619,4.329 C6.03555619,2.957 4.92355334,1.845 3.55155334,1.845 Z M9.93955334,1.84499715 C9.28055334,1.844 8.64855334,2.106 8.18255334,2.572 C7.71655334,3.038 7.45455334,3.67 7.45555049,4.329 C7.45555049,5.7 8.56755334,6.813 9.93955334,6.813 C11.3105533,6.813 12.4225533,5.7 12.4225533,4.329 C12.4225533,2.957 11.3105533,1.84499715 9.93955334,1.84499715 Z" id="path-37"></path>
        <path d="M0.996,-4.54747351e-13 C1.547,-4.54747351e-13 1.993,0.446 1.993,0.996 C1.993,1.546 0.996,3.3 0.996,3.3 C0.996,3.3 0,1.546 0,0.996 C0,0.446 0.446,-4.54747351e-13 0.996,-4.54747351e-13 Z" id="path-39"></path>
        <path d="M6.387,-4.54747351e-13 C6.583,-4.54747351e-13 6.742,0.159 6.742,0.355 L6.742,2.839 C6.742,3.035 6.583,3.194 6.387,3.194 C6.191,3.194 6.032,3.035 6.032,2.839 L6.032,0.71 L0.355,0.71 C0.159,0.71 0,0.551 0,0.355 C0,0.159 0.159,-4.54747351e-13 0.355,-4.54747351e-13 L6.387,-4.54747351e-13 Z" id="path-41"></path>
        <polygon id="path-43" points="2.839 0.1715 0.657 0.8285 0 0.1715"></polygon>
        <polygon id="path-45" points="1.419 4.54747351e-13 2.076 0.657 0.71 1.065 0 4.54747351e-13"></polygon>
        <path d="M0.5,0.1455 C0.696,0.1455 0.855,0.3045 0.855,0.5005 C0.855,0.6965 0.696,0.8545 0.5,0.8545 C0.304,0.8545 0.145,0.6965 0.145,0.5005 C0.145,0.3045 0.304,0.1455 0.5,0.1455 Z" id="path-47"></path>
        <path d="M0.5,0.1455 C0.696,0.1455 0.855,0.3045 0.855,0.5005 C0.855,0.6965 0.696,0.8545 0.5,0.8545 C0.304,0.8545 0.145,0.6965 0.145,0.5005 C0.145,0.3045 0.304,0.1455 0.5,0.1455 Z" id="path-49"></path>
        <path d="M9.052,6.48017298e-07 C10.499,-0.000998703124 11.682,1.1540013 11.715,2.6000013 C11.748,4.0470013 10.619,5.2550013 9.174,5.3200013 C7.728,5.3850013 6.496,4.2830013 6.399,2.8390013 L5.317,2.8390013 C5.221,4.2710013 4.007,5.3690013 2.573,5.3210013 C1.138,5.2740013 -2.27373675e-13,4.0970013 -2.27373675e-13,2.6620013 C-2.27373675e-13,1.2260013 1.138,0.0500012969 2.573,0.00200129688 C4.007,-0.0459987031 5.221,1.0520013 5.317,2.4840013 L6.399,2.4840013 C6.492,1.0880013 7.652,0.00200129688 9.052,6.48017298e-07 Z M2.664,0.355001297 C1.391,0.355001297 0.358,1.3880013 0.358,2.6620013 C0.358,3.9350013 1.391,4.9680013 2.664,4.9680013 C3.938,4.9670013 4.969,3.9350013 4.971,2.6620013 C4.971,1.3880013 3.938,0.355001297 2.664,0.355001297 Z M9.052,0.355001297 C7.778,0.355001297 6.745,1.3880013 6.745,2.6620013 C6.745,3.9350013 7.778,4.9680013 9.052,4.9680013 C10.325,4.9670013 11.356,3.9350013 11.358,2.6620013 C11.358,1.3880013 10.325,0.355001297 9.052,0.355001297 Z" id="path-51"></path>
    </defs>
    <g id="Page-1" stroke="none" stroke-width="1" fill="none" fill-rule="evenodd">
        <g id="innen" transform="translate(-1092, -796)">
            <g id="Group-5721" transform="translate(1058.749, 227)">
                <g id="Group-5623" transform="translate(33.251, 569)">
                    <g id="Group-5547">
                        <mask id="mask-2" fill="white">
                            <use xlink:href="#path-1"></use>
                        </mask>
                        <g id="Clip-5546"></g>
                        <polygon id="Fill-5545" fill="#FFFFFF" mask="url(#mask-2)" points="-1 -1 32 -1 32 31 -1 31"></polygon>
                    </g>
                    <g id="Group-5550" transform="translate(9.323, 11.097)">
                        <mask id="mask-4" fill="white">
                            <use xlink:href="#path-3"></use>
                        </mask>
                        <g id="Clip-5549"></g>
                        <polygon id="Fill-5548" fill="#E7E8E8" mask="url(#mask-4)" points="-1.00099431 -1 5.96700569 -1 5.96700569 5.968 -1.00099431 5.968"></polygon>
                    </g>
                    <g id="Group-5553" transform="translate(15.71, 11.097)">
                        <mask id="mask-6" fill="white">
                            <use xlink:href="#path-5"></use>
                        </mask>
                        <g id="Clip-5552"></g>
                        <polygon id="Fill-5551" fill="#E7E8E8" mask="url(#mask-6)" points="-1.00099431 -1.00099431 5.96700569 -1.00099431 5.96700569 5.96800569 -1.00099431 5.96800569"></polygon>
                    </g>
                    <g id="Group-5556" transform="translate(10.387, 12.161)">
                        <mask id="mask-8" fill="white">
                            <use xlink:href="#path-7"></use>
                        </mask>
                        <g id="Clip-5555"></g>
                        <polygon id="Fill-5554" fill="#E7E8E8" mask="url(#mask-8)" points="-1 -1 3.839 -1 3.839 3.839 -1 3.839"></polygon>
                    </g>
                    <g id="Group-5559" transform="translate(16.774, 12.161)">
                        <mask id="mask-10" fill="white">
                            <use xlink:href="#path-9"></use>
                        </mask>
                        <g id="Clip-5558"></g>
                        <polygon id="Fill-5557" fill="#E7E8E8" mask="url(#mask-10)" points="-1 -1 3.839 -1 3.839 3.839 -1 3.839"></polygon>
                    </g>
                    <g id="Group-5562" transform="translate(13.583, 23.871)">
                        <mask id="mask-12" fill="white">
                            <use xlink:href="#path-11"></use>
                        </mask>
                        <g id="Clip-5561"></g>
                        <polygon id="Fill-5560" fill="#405B73" mask="url(#mask-12)" points="-1 -1 3.839 -1 3.839 3.129 -1 3.129"></polygon>
                    </g>
                    <g id="Group-5565" transform="translate(11.806, 23.871)">
                        <mask id="mask-14" fill="white">
                            <use xlink:href="#path-13"></use>
                        </mask>
                        <g id="Clip-5564"></g>
                        <polygon id="Fill-5563" fill="#405B73" mask="url(#mask-14)" points="-1 -1 3.129 -1 3.129 2.774 -1 2.774"></polygon>
                    </g>
                    <g id="Group-5568" transform="translate(16.07, 23.871)">
                        <mask id="mask-16" fill="white">
                            <use xlink:href="#path-15"></use>
                        </mask>
                        <g id="Clip-5567"></g>
                        <polygon id="Fill-5566" fill="#405B73" mask="url(#mask-16)" points="-1 -1 3.129 -1 3.129 2.774 -1 2.774"></polygon>
                    </g>
                    <g id="Group-5571" transform="translate(6.129, 21.742)">
                        <mask id="mask-18" fill="white">
                            <use xlink:href="#path-17"></use>
                        </mask>
                        <g id="Clip-5570"></g>
                        <polygon id="Fill-5569" fill="#405B73" mask="url(#mask-18)" points="-1 -1 2.065 -1 2.065 3.129 -1 3.129"></polygon>
                    </g>
                    <g id="Group-5574" transform="translate(4, 21.742)">
                        <mask id="mask-20" fill="white">
                            <use xlink:href="#path-19"></use>
                        </mask>
                        <g id="Clip-5573"></g>
                        <polygon id="Fill-5572" fill="#405B73" mask="url(#mask-20)" points="-1 -1 3.129 -1 3.129 3.129 -1 3.129"></polygon>
                    </g>
                    <g id="Group-5577" transform="translate(23.161, 22.15)">
                        <mask id="mask-22" fill="white">
                            <use xlink:href="#path-21"></use>
                        </mask>
                        <g id="Clip-5576"></g>
                        <polygon id="Fill-5575" fill="#393D48" mask="url(#mask-22)" points="-1 -1 3.839 -1 3.839 2.313 -1 2.313"></polygon>
                    </g>
                    <g id="Group-5580" transform="translate(21.742, 21.742)">
                        <mask id="mask-24" fill="white">
                            <use xlink:href="#path-23"></use>
                        </mask>
                        <g id="Clip-5579"></g>
                        <polygon id="Fill-5578" fill="#FFD6BD" mask="url(#mask-24)" points="-1 -1 3.076 -1 3.076 3.129 -1 3.129"></polygon>
                    </g>
                    <g id="Group-5583" transform="translate(7.194, 22.806)">
                        <mask id="mask-26" fill="white">
                            <use xlink:href="#path-25"></use>
                        </mask>
                        <g id="Clip-5582"></g>
                        <polygon id="Fill-5581" fill="#F4CC54" mask="url(#mask-26)" points="-1 -1 16.258 -1 16.258 2.065 -1 2.065"></polygon>
                    </g>
                    <g id="Group-5586" transform="translate(7.194, 21.742)">
                        <mask id="mask-28" fill="white">
                            <use xlink:href="#path-27"></use>
                        </mask>
                        <g id="Clip-5585"></g>
                        <polygon id="Fill-5584" fill="#F4CC54" mask="url(#mask-28)" points="-1 -1 16.258 -1 16.258 2.064 -1 2.064"></polygon>
                    </g>
                    <g id="Group-5589" transform="translate(8.968, 4)">
                        <mask id="mask-30" fill="white">
                            <use xlink:href="#path-29"></use>
                        </mask>
                        <g id="Clip-5588"></g>
                        <polygon id="Fill-5587" fill="#405B73" mask="url(#mask-30)" points="-1 -1 13.064 -1 13.064 5.258 -1 5.258"></polygon>
                    </g>
                    <g id="Group-5592" transform="translate(10.387, 6.629)">
                        <mask id="mask-32" fill="white">
                            <use xlink:href="#path-31"></use>
                        </mask>
                        <g id="Clip-5591"></g>
                        <polygon id="Fill-5590" fill="#F4CC54" mask="url(#mask-32)" points="-1 -1 10.226 -1 10.226 4.758 -1 4.758"></polygon>
                    </g>
                    <g id="Group-5595" transform="translate(8.258, 15.71)">
                        <mask id="mask-34" fill="white">
                            <use xlink:href="#path-33"></use>
                        </mask>
                        <g id="Clip-5594"></g>
                        <polygon id="Fill-5593" fill="#F4CC54" mask="url(#mask-34)" points="-1 -1 3.135 -1 3.135 5.619 -1 5.619"></polygon>
                    </g>
                    <g id="Group-5598" transform="translate(19.6128, 15.71)">
                        <mask id="mask-36" fill="white">
                            <use xlink:href="#path-35"></use>
                        </mask>
                        <g id="Clip-5597"></g>
                        <polygon id="Fill-5596" fill="#F4CC54" mask="url(#mask-36)" points="-1.00576681 -1 3.12923319 -1 3.12923319 5.619 -1.00576681 5.619"></polygon>
                    </g>
                    <g id="Group-5601" transform="translate(8.2544, 9.252)">
                        <mask id="mask-38" fill="white">
                            <use xlink:href="#path-37"></use>
                        </mask>
                        <g id="Clip-5600"></g>
                        <polygon id="Fill-5599" fill="#405B73" mask="url(#mask-38)" points="-1.03344666 -1 14.5245533 -1 14.5245533 13.49 -1.03344666 13.49"></polygon>
                    </g>
                    <g id="Group-5604" transform="translate(14.065, 13.9)">
                        <mask id="mask-40" fill="white">
                            <use xlink:href="#path-39"></use>
                        </mask>
                        <g id="Clip-5603"></g>
                        <polygon id="Fill-5602" fill="#F4CC54" mask="url(#mask-40)" points="-1 -1 2.993 -1 2.993 4.3 -1 4.3"></polygon>
                    </g>
                    <g id="Group-5607" transform="translate(14.645, 5.774)">
                        <mask id="mask-42" fill="white">
                            <use xlink:href="#path-41"></use>
                        </mask>
                        <g id="Clip-5606"></g>
                        <polygon id="Fill-5605" fill="#F4CC54" mask="url(#mask-42)" points="-1 -1 7.742 -1 7.742 4.194 -1 4.194"></polygon>
                    </g>
                    <g id="Group-5610" transform="translate(23.161, 22.6345)">
                        <mask id="mask-44" fill="white">
                            <use xlink:href="#path-43"></use>
                        </mask>
                        <g id="Clip-5609"></g>
                        <polygon id="Fill-5608" fill="#222430" mask="url(#mask-44)" points="-1 -0.8285 3.839 -0.8285 3.839 1.8285 -1 1.8285"></polygon>
                    </g>
                    <g id="Group-5613" transform="translate(21.742, 22.806)">
                        <mask id="mask-46" fill="white">
                            <use xlink:href="#path-45"></use>
                        </mask>
                        <g id="Clip-5612"></g>
                        <polygon id="Fill-5611" fill="#FFD6BD" mask="url(#mask-46)" points="-1 -1 3.076 -1 3.076 2.065 -1 2.065"></polygon>
                    </g>
                    <g id="Group-5616" transform="translate(16.984, 13.0805)">
                        <mask id="mask-48" fill="white">
                            <use xlink:href="#path-47"></use>
                        </mask>
                        <g id="Clip-5615"></g>
                        <polygon id="Fill-5614" fill="#405B73" mask="url(#mask-48)" points="-0.855 -0.8545 1.855 -0.8545 1.855 1.8545 -0.855 1.8545"></polygon>
                    </g>
                    <g id="Group-5619" transform="translate(12.016, 13.0805)">
                        <mask id="mask-50" fill="white">
                            <use xlink:href="#path-49"></use>
                        </mask>
                        <g id="Clip-5618"></g>
                        <polygon id="Fill-5617" fill="#405B73" mask="url(#mask-50)" points="-0.855 -0.8545 1.855 -0.8545 1.855 1.8545 -0.855 1.8545"></polygon>
                    </g>
                    <g id="Group-5622" transform="translate(9.142, 10.919)">
                        <mask id="mask-52" fill="white">
                            <use xlink:href="#path-51"></use>
                        </mask>
                        <g id="Clip-5621"></g>
                        <polygon id="Fill-5620" fill="#F4CC54" mask="url(#mask-52)" points="-1 -1.0459987 12.748 -1.0459987 12.748 6.3850013 -1 6.3850013"></polygon>
                    </g>
                </g>
            </g>
        </g>
    </g>
</svg>